<?xml version="1.0" encoding="UTF-8" standalone="no"?>
<svg width="40px" height="39px" viewBox="0 0 40 39" version="1.1" xmlns="http://www.w3.org/2000/svg" xmlns:xlink="http://www.w3.org/1999/xlink" xmlns:sketch="http://www.bohemiancoding.com/sketch/ns">
    <!-- Generator: Sketch 3.1.1 (8761) - http://www.bohemiancoding.com/sketch -->
    <title>flower79</title>
    <desc>Created with Sketch.</desc>
    <defs></defs>
    <g id="Page-1" stroke="none" stroke-width="1" fill="none" fill-rule="evenodd" sketch:type="MSPage">
        <g id="Map-View-Design" sketch:type="MSArtboardGroup" transform="translate(-891.000000, -386.000000)" fill-opacity="0.55" fill="#37A87F">
            <g id="Seasons" sketch:type="MSLayerGroup" transform="translate(459.000000, 331.000000)">
                <g id="Season-Icons" transform="translate(417.000000, 55.935484)" sketch:type="MSShapeGroup">
                    <g id="flower79" transform="translate(15.000000, 0.000000)">
                        <g id="Group">
                            <path d="M8.28945,0.69876207 C8.28945,0.69876207 3.93188377,2.91471421 3.93188377,11.4112804 C3.93188377,24.2791846 18.5216318,25.6597084 18.5216318,25.6597084 L17.7982504,37 L21.2179508,37 L20.7409091,25.6443265 C20.7409091,25.6443265 33.8699045,25.9538869 35.81955,16.3027183 C37.7682078,6.65154976 35.9538721,2.52920583 35.1064578,2.52920583 C34.2590435,2.52920583 27.4826922,9.21551694 27.4826922,9.21551694 C27.4826922,9.21551694 22.8278396,-0.178966477 21.21795,-0.178966477 C19.6080604,-0.178966477 13.3492442,8.16954908 13.3492442,8.16954908 L8.28945,0.69876207 Z" id="Shape"></path>
                            <path d="M16.7053208,36.3760725 C17.336437,35.1474448 13.4154175,30.9808779 8.86328182,29.3571282 C8.86328182,29.3571282 1.20198506,26.4624506 0.255804545,28.8745217 C-0.690375974,31.2865928 4.85238506,35.6742742 7.19610779,36.3760725 C10.035637,37.4287699 16.0742045,37.6037388 16.7053208,36.3760725 L16.7053208,36.3760725 Z" id="Shape"></path>
                            <path d="M30.3775305,28.3351945 C25.938976,30.2310113 22.2925266,34.6283063 23.0006805,35.8155952 C23.7088344,37.0028841 29.7246857,36.4616342 32.4911279,35.2387747 C34.7854675,34.3956554 40.0368682,29.6820704 38.9376,27.3315268 C37.8383318,24.9809832 30.3775305,28.3351945 30.3775305,28.3351945 L30.3775305,28.3351945 Z" id="Shape"></path>
                        </g>
                    </g>
                </g>
            </g>
        </g>
    </g>
</svg>