<?xml version="1.0" encoding="UTF-8" standalone="no"?>
<svg width="32px" height="37px" viewBox="0 0 32 37" version="1.1" xmlns="http://www.w3.org/2000/svg" xmlns:xlink="http://www.w3.org/1999/xlink" xmlns:sketch="http://www.bohemiancoding.com/sketch/ns">
    <!-- Generator: Sketch 3.1.1 (8761) - http://www.bohemiancoding.com/sketch -->
    <title>leaf</title>
    <desc>Created with Sketch.</desc>
    <defs></defs>
    <g id="Page-1" stroke="none" stroke-width="1" fill="none" fill-rule="evenodd" sketch:type="MSPage">
        <g id="Map-View-Design" sketch:type="MSArtboardGroup" transform="translate(-895.000000, -521.000000)" fill-opacity="0.55" fill="#814A20">
            <g id="Seasons" sketch:type="MSLayerGroup" transform="translate(459.000000, 331.000000)">
                <g id="Season-Icons" transform="translate(417.000000, 55.935484)" sketch:type="MSShapeGroup">
                    <g id="leaf" transform="translate(19.500000, 134.064516)">
                        <path d="M23.1581923,0 C16.8699615,10.0801875 11.8944615,5.12334375 4.61780769,12.3730313 C-1.80396154,18.7705625 0.423269231,26.4758125 5.82919231,29.1294063 C11.1659615,26.4850625 16.6255385,20.572 20.6758077,12.0122813 C20.6758077,12.0122813 24.3147308,22.8209063 13.1678462,33.23525 C18.5809231,39.3830313 27.7676538,35.1060625 30.3346923,25.3253438 C33.1258846,14.6924688 25.8492308,3.8665 23.1581923,0 L23.1581923,0 Z M0.0381538462,34.9129688 C0.0429230769,35.0181875 0.165730769,37 2.84603846,37 C4.79665385,37 14.6880385,31.7725938 19.7720385,18.204 C12.0804615,31.4002813 0.9145,34.6747813 0.0381538462,34.9129688 L0.0381538462,34.9129688 Z" id="Shape"></path>
                    </g>
                </g>
            </g>
        </g>
    </g>
</svg>