<?xml version="1.0" encoding="UTF-8" standalone="no"?>
<svg width="38px" height="38px" viewBox="0 0 38 38" version="1.1" xmlns="http://www.w3.org/2000/svg" xmlns:xlink="http://www.w3.org/1999/xlink" xmlns:sketch="http://www.bohemiancoding.com/sketch/ns">
    <!-- Generator: Sketch 3.1.1 (8761) - http://www.bohemiancoding.com/sketch -->
    <title>Snow</title>
    <desc>Created with Sketch.</desc>
    <defs></defs>
    <g id="Page-1" stroke="none" stroke-width="1" fill="none" fill-rule="evenodd" sketch:type="MSPage">
        <g id="Map-View-Design" sketch:type="MSArtboardGroup" transform="translate(-892.000000, -589.000000)" fill-opacity="0.55" fill="#088CF9">
            <g id="Seasons" sketch:type="MSLayerGroup" transform="translate(459.000000, 331.000000)">
                <g id="Season-Icons" transform="translate(417.000000, 55.935484)" sketch:type="MSShapeGroup">
                    <g id="snowflake3" transform="translate(16.000000, 202.784946)">
                        <g id="Snow">
                            <path d="M37.2102903,18.4376853 C37.2044755,17.7957282 36.6788149,17.2793713 36.0356948,17.2851862 L33.0329171,17.3119344 L35.6740125,14.6231574 C36.1252432,14.163786 36.1182654,13.4287916 35.6588939,12.9787238 C35.1995224,12.528656 34.466854,12.5344709 34.0144603,12.9938424 L29.7440498,17.3421715 L21.4009332,17.4166013 L27.1611028,11.5506018 L33.2608584,11.4971054 C33.9039785,11.4912905 34.4191724,10.96563 34.4133575,10.3236729 C34.4075427,9.68055279 33.8830451,9.16535894 33.239925,9.17117377 L29.4684269,9.20489978 L31.6594545,6.97549434 C32.1095223,6.51612285 32.1025445,5.78112846 31.643173,5.3310607 C31.1838015,4.88099293 30.4488071,4.88680776 29.9987394,5.34617925 L27.8112007,7.57325876 L27.7774747,3.8040866 C27.7704969,3.16212948 27.2459993,2.64577266 26.6028792,2.65158749 C25.9609221,2.65740232 25.4445653,3.18306286 25.4515431,3.82618295 L25.5062025,9.92012375 L19.7437069,15.7884492 L19.6692771,7.44998439 L23.9431764,3.09932932 C24.3944072,2.63995783 24.3862664,1.90496345 23.9280579,1.45489568 C23.4686864,1.00482792 22.734855,1.01180571 22.2836242,1.47001424 L19.640203,4.1611171 L19.6157807,1.15368754 C19.604151,0.509404485 19.0796534,-0.00578936514 18.4376963,2.54638678e-05 C17.7957392,0.00584029287 17.2793824,0.530337869 17.2863602,1.17345796 L17.3131084,4.17856159 L14.6243315,1.53746625 C14.16496,1.08739849 13.4299656,1.09321332 12.9798978,1.55258481 C12.5286671,2.0119563 12.5356449,2.74695069 12.9938534,3.19701845 L17.3421825,7.46859184 L17.4166124,15.8093826 L11.5506129,10.04805 L11.4959535,3.94945732 C11.4901386,3.3075002 10.9644781,2.79114339 10.322521,2.79695822 C9.68056384,2.80393601 9.16536999,3.32727062 9.17002186,3.97155367 L9.20374787,7.74305177 L6.97550539,5.5520242 C6.51729686,5.1031194 5.78113951,5.11009719 5.33107175,5.56714275 C4.88100398,6.02767721 4.88681881,6.76150863 5.3461903,7.21273936 L7.57326981,9.401441 L3.80409765,9.43400404 C3.16214053,9.44098184 2.64578371,9.96431645 2.65043558,10.6085995 C2.65741337,11.2505566 3.18191095,11.7669134 3.82503104,11.7610986 L9.9201348,11.7064392 L15.7861343,17.4677718 L7.44534357,17.5410386 L3.09817741,13.2706282 C2.63880592,12.8205605 1.90381153,12.8275382 1.45374377,13.2869097 C1.00251304,13.7451183 1.00949083,14.4801127 1.46769936,14.9301804 L4.15647629,17.5712758 L1.15137266,17.598024 C0.509415536,17.6050018 -0.00694127917,18.1294993 3.65156334e-05,18.7726194 C0.00468837884,19.4145765 0.530348921,19.9297704 1.17346901,19.9251185 L4.1797356,19.8983703 L1.53515137,22.5894732 C1.08508361,23.0488447 1.0920614,23.7815131 1.55143289,24.2339068 C1.78053716,24.4560333 2.0782564,24.5700039 2.37597565,24.5653521 C2.67369489,24.5630261 2.97141414,24.4467296 3.19586654,24.2176253 L7.46860289,19.8681332 L15.8070677,19.7937034 L10.0445721,25.6608659 L3.95063134,25.7155253 C3.30751125,25.7225031 2.79115444,26.2470006 2.7958063,26.8901207 C2.8027841,27.5332408 3.32728167,28.0484347 3.97040176,28.0414569 L7.73841096,28.0077309 L5.55087228,30.2359733 C5.10080452,30.6953448 5.10778231,31.4280133 5.56599084,31.880407 C5.7950951,32.1048594 6.09397731,32.2165041 6.39169656,32.2141782 C6.6894158,32.2095263 6.98597208,32.0932297 7.21042448,31.8641254 L9.39912612,29.635883 L9.43285213,33.408544 C9.43982992,34.0493382 9.9643275,34.566858 10.6074476,34.5598802 C11.2494047,34.5552283 11.7657615,34.0284048 11.7587837,33.3852847 L11.7041243,27.289018 L17.4654569,21.4218555 L17.5398867,29.7649722 L13.2683133,34.1121383 C12.8182456,34.5715098 12.8252234,35.3065042 13.2834319,35.756572 C13.7416404,36.2066397 14.4766348,36.2019879 14.9278655,35.7402905 L17.5689609,33.0526765 L17.5945461,36.0577801 C17.6015239,36.6985743 18.1260215,37.2160941 18.7691416,37.2091163 C19.4110987,37.2044644 19.9274555,36.6776409 19.9204777,36.0345208 L19.8925665,33.0282542 L22.5836694,35.6716755 C22.8127737,35.8961279 23.1116559,36.0077726 23.4105381,36.0054467 C23.7082573,36.0031207 24.0036506,35.8844982 24.228103,35.6577199 C24.6804967,35.1971854 24.672356,34.463354 24.2141475,34.0132862 L19.8634924,29.738224 L19.7913885,21.3985962 L25.658551,27.1634177 L25.7132104,33.2596844 C25.7201882,33.9004786 26.2446857,34.4156724 26.8878058,34.4110206 C27.529763,34.4040428 28.0437938,33.8795452 28.039142,33.2364251 L28.0065789,29.4684159 L30.2336584,31.6559546 C30.4627627,31.880407 30.7616449,31.9920517 31.0593642,31.9897258 C31.3570834,31.9850739 31.6536397,31.8687773 31.8780921,31.639673 C32.3293228,31.1803016 32.322345,30.4476331 31.8618106,29.9952394 L29.6335681,27.8077007 L33.4039032,27.7739747 C34.0470233,27.7669969 34.5622172,27.2424994 34.5575653,26.5993793 C34.5505875,25.9562592 34.0260899,25.4410653 33.3829698,25.4480431 L27.2867031,25.5027025 L21.4195406,19.737881 L29.7603314,19.6657772 L34.1098235,23.9385135 C34.3389277,24.1629659 34.6378099,24.2746106 34.9355292,24.2722847 C35.2332484,24.2699588 35.5298047,24.1513363 35.7542571,23.9245579 C36.2054878,23.4651864 36.19851,22.730192 35.7403015,22.2801243 L33.0491986,19.636703 L36.0566282,19.6099548 C36.7020742,19.60414 37.2172681,19.0808054 37.2102903,18.4376853 L37.2102903,18.4376853 Z" id="Shape"></path>
                        </g>
                    </g>
                </g>
            </g>
        </g>
    </g>
</svg>