<?xml version="1.0" encoding="UTF-8" standalone="no"?>
<svg width="37px" height="37px" viewBox="0 0 37 37" version="1.1" xmlns="http://www.w3.org/2000/svg" xmlns:xlink="http://www.w3.org/1999/xlink" xmlns:sketch="http://www.bohemiancoding.com/sketch/ns">
    <!-- Generator: Sketch 3.1.1 (8761) - http://www.bohemiancoding.com/sketch -->
    <title>dark26</title>
    <desc>Created with Sketch.</desc>
    <defs></defs>
    <g id="Page-1" stroke="none" stroke-width="1" fill="none" fill-rule="evenodd" sketch:type="MSPage">
        <g id="Map-View-Design" sketch:type="MSArtboardGroup" transform="translate(-891.000000, -454.000000)" fill-opacity="0.55" fill="#FFFE00">
            <g id="Seasons" sketch:type="MSLayerGroup" transform="translate(459.000000, 331.000000)">
                <g id="Season-Icons" transform="translate(417.000000, 55.935484)" sketch:type="MSShapeGroup">
                    <g id="dark26" transform="translate(15.000000, 67.064516)">
                        <g id="Group">
                            <path d="M7.78681818,10.1665909 C8.44945455,10.8275455 9.51404545,10.8376364 10.1766818,10.175 C10.8325909,9.51909091 10.8376364,8.45786364 10.1649091,7.78513636 L7.81036364,5.43059091 C7.14604545,4.76795455 6.08145455,4.75786364 5.4205,5.4205 C4.76459091,6.07809091 4.75954545,7.13763636 5.43227273,7.81036364 L7.78681818,10.1665909 L7.78681818,10.1665909 Z" id="Shape"></path>
                            <circle id="Oval" cx="18.5" cy="18.5" r="10.0909091"></circle>
                            <path d="M6.72727273,18.5050455 C6.72727273,17.5766818 5.98054545,16.8232273 5.02863636,16.8232273 L1.69695455,16.8232273 C0.760181818,16.8232273 0,17.5699545 0,18.5050455 C0,19.4350909 0.746727273,20.1868636 1.69695455,20.1868636 L5.02863636,20.1868636 C5.96709091,20.1868636 6.72727273,19.4418182 6.72727273,18.5050455 L6.72727273,18.5050455 Z" id="Shape"></path>
                            <path d="M35.3131364,16.8232273 L31.9831364,16.8232273 C31.043,16.8232273 30.2828182,17.5699545 30.2828182,18.5050455 C30.2828182,19.4350909 31.0312273,20.1868636 31.9831364,20.1868636 L35.3131364,20.1868636 C36.2499091,20.1868636 37.0100909,19.4418182 37.0100909,18.5050455 C37.0100909,17.5766818 36.2633636,16.8232273 35.3131364,16.8232273 L35.3131364,16.8232273 Z" id="Shape"></path>
                            <path d="M7.78513636,26.8451818 L5.43059091,29.1997273 C4.76795455,29.8640455 4.75786364,30.9303182 5.41881818,31.5895909 C6.07640909,32.2438182 7.13595455,32.2488636 7.80868182,31.5778182 L10.1632273,29.2232727 C10.8275455,28.5589545 10.8376364,27.4960455 10.175,26.8334091 C9.51740909,26.1775 8.45786364,26.1724545 7.78513636,26.8451818 L7.78513636,26.8451818 Z" id="Shape"></path>
                            <path d="M18.5050455,6.72727273 C19.4350909,6.72727273 20.1868636,5.98054545 20.1868636,5.02863636 L20.1868636,1.69863636 C20.1868636,0.760181818 19.4418182,0 18.5050455,0 C17.575,0 16.8232273,0.746727273 16.8232273,1.69863636 L16.8232273,5.02863636 C16.8232273,5.96709091 17.5699545,6.72727273 18.5050455,6.72727273 L18.5050455,6.72727273 Z" id="Shape"></path>
                            <path d="M18.5050455,30.2828182 C17.575,30.2828182 16.8232273,31.0312273 16.8232273,31.9831364 L16.8232273,35.3131364 C16.8232273,36.2532727 17.5699545,37.0100909 18.5050455,37.0100909 C19.4350909,37.0100909 20.1868636,36.2667273 20.1868636,35.3131364 L20.1868636,31.9831364 C20.1868636,31.043 19.4418182,30.2828182 18.5050455,30.2828182 L18.5050455,30.2828182 Z" id="Shape"></path>
                            <path d="M29.2232727,10.1665909 L31.5778182,7.81036364 C32.2421364,7.14604545 32.2505455,6.08313636 31.5895909,5.4205 C30.9303182,4.76459091 29.8724545,4.75954545 29.1997273,5.43227273 L26.8451818,7.78681818 C26.1808636,8.44945455 26.1724545,9.51572727 26.8334091,10.1766818 C27.4926818,10.8325909 28.5505455,10.8376364 29.2232727,10.1665909 L29.2232727,10.1665909 Z" id="Shape"></path>
                            <path d="M29.2232727,26.8451818 C28.5589545,26.1808636 27.4960455,26.1724545 26.8334091,26.8334091 C26.1775,27.4926818 26.1707727,28.5505455 26.8451818,29.2232727 L29.1997273,31.5778182 C29.8640455,32.2421364 30.9269545,32.2505455 31.5895909,31.5895909 C32.2438182,30.9336818 32.2488636,29.8724545 31.5778182,29.1997273 L29.2232727,26.8451818 L29.2232727,26.8451818 Z" id="Shape"></path>
                        </g>
                    </g>
                </g>
            </g>
        </g>
    </g>
</svg>